<svg width="17" height="18" viewBox="0 0 17 18" fill="none" xmlns="http://www.w3.org/2000/svg">
<path d="M11.5439 11.152H8.70248C8.61255 11.152 8.5263 11.1163 8.46272 11.0527C8.39913 10.9891 8.3634 10.9029 8.3634 10.813C8.3634 10.723 8.39913 10.6368 8.46272 10.5732C8.5263 10.5096 8.61255 10.4739 8.70248 10.4739H11.5439C11.6338 10.4739 11.7201 10.5096 11.7837 10.5732C11.8473 10.6368 11.883 10.723 11.883 10.813C11.883 10.9029 11.8473 10.9891 11.7837 11.0527C11.7201 11.1163 11.6338 11.152 11.5439 11.152Z" fill="white"/>
<path d="M13.4563 10.9417C13.4162 10.9512 13.3744 10.9512 13.3343 10.9417C13.2925 10.9267 13.2541 10.9034 13.2215 10.8732C13.1888 10.8431 13.1626 10.8067 13.1442 10.7663C13.1259 10.7258 13.1159 10.6821 13.1147 10.6377C13.1136 10.5932 13.1214 10.5491 13.1376 10.5077L14.7516 6.1947C14.7835 6.11142 14.847 6.04409 14.9282 6.00728C15.0095 5.97047 15.1019 5.96715 15.1856 5.99803C15.2695 6.03147 15.3374 6.09583 15.3752 6.17785C15.4131 6.25986 15.418 6.35328 15.389 6.43883L13.7751 10.7315C13.7477 10.7934 13.7031 10.8462 13.6466 10.8835C13.5901 10.9208 13.524 10.941 13.4563 10.9417Z" fill="white"/>
<path d="M6.53243 11.0706C6.46168 11.0711 6.39261 11.049 6.33528 11.0076C6.27795 10.9661 6.23536 10.9074 6.2137 10.84L4.08433 4.37053H2.04989C1.95996 4.37053 1.87372 4.3348 1.81013 4.27122C1.74654 4.20763 1.71082 4.12138 1.71082 4.03146C1.71255 3.94207 1.74883 3.85683 1.81205 3.79362C1.87526 3.7304 1.9605 3.69412 2.04989 3.69238H4.32846C4.39872 3.69388 4.46686 3.71675 4.5238 3.75794C4.58074 3.79913 4.62378 3.85669 4.64719 3.92295L6.87829 10.623C6.89315 10.6649 6.89948 10.7092 6.89691 10.7535C6.89434 10.7978 6.88292 10.8412 6.86333 10.881C6.84373 10.9208 6.81636 10.9563 6.78282 10.9854C6.74928 11.0145 6.71026 11.0365 6.66806 11.0503C6.62498 11.0672 6.5786 11.0742 6.53243 11.0706Z" fill="white"/>
<path d="M7.5768 14.1223C7.17442 14.1223 6.78109 14.003 6.44652 13.7795C6.11196 13.5559 5.8512 13.2382 5.69722 12.8665C5.54324 12.4947 5.50295 12.0856 5.58145 11.691C5.65995 11.2964 5.85371 10.9339 6.13823 10.6493C6.42275 10.3648 6.78526 10.1711 7.1799 10.0926C7.57454 10.0141 7.9836 10.0543 8.35534 10.2083C8.72709 10.3623 9.04482 10.6231 9.26837 10.9576C9.49192 11.2922 9.61123 11.6855 9.61123 12.0879C9.61123 12.6275 9.39689 13.1449 9.01536 13.5265C8.63383 13.908 8.11636 14.1223 7.5768 14.1223ZM7.5768 10.7316C7.30855 10.7316 7.04632 10.8112 6.82328 10.9602C6.60024 11.1092 6.4264 11.321 6.32375 11.5689C6.22109 11.8167 6.19423 12.0894 6.24657 12.3525C6.2989 12.6156 6.42807 12.8573 6.61775 13.0469C6.80743 13.2366 7.0491 13.3658 7.3122 13.4181C7.57529 13.4705 7.848 13.4436 8.09583 13.341C8.34366 13.2383 8.55548 13.0645 8.70451 12.8414C8.85354 12.6184 8.93309 12.3562 8.93309 12.0879C8.93309 11.7282 8.79019 11.3832 8.53584 11.1289C8.28148 10.8745 7.93651 10.7316 7.5768 10.7316Z" fill="white"/>
<path d="M12.6696 14.1223C12.2673 14.1223 11.8739 14.003 11.5394 13.7795C11.2048 13.5559 10.944 13.2382 10.7901 12.8665C10.6361 12.4947 10.5958 12.0856 10.6743 11.691C10.7528 11.2964 10.9465 10.9339 11.2311 10.6493C11.5156 10.3648 11.8781 10.1711 12.2727 10.0926C12.6674 10.0141 13.0764 10.0543 13.4482 10.2083C13.8199 10.3623 14.1377 10.6231 14.3612 10.9576C14.5848 11.2922 14.7041 11.6855 14.7041 12.0879C14.7041 12.6275 14.4897 13.1449 14.1082 13.5265C13.7267 13.908 13.2092 14.1223 12.6696 14.1223ZM12.6696 10.7316C12.4014 10.7316 12.1392 10.8112 11.9161 10.9602C11.6931 11.1092 11.5192 11.321 11.4166 11.5689C11.3139 11.8167 11.2871 12.0894 11.3394 12.3525C11.3917 12.6156 11.5209 12.8573 11.7106 13.0469C11.9003 13.2366 12.1419 13.3658 12.405 13.4181C12.6681 13.4705 12.9408 13.4436 13.1887 13.341C13.4365 13.2383 13.6483 13.0645 13.7973 12.8414C13.9464 12.6184 14.0259 12.3562 14.0259 12.0879C14.0259 11.7282 13.883 11.3832 13.6287 11.1289C13.3743 10.8745 13.0293 10.7316 12.6696 10.7316Z" fill="white"/>
</svg>
