<svg width="100" height="100" viewBox="0 0 100 100" fill="none" xmlns="http://www.w3.org/2000/svg">
<path d="M54.4999 84.3334C48.8306 84.3385 43.2432 82.9809 38.2083 80.3751C37.9648 80.2492 37.7484 80.0766 37.5717 79.8672C37.3949 79.6577 37.261 79.4155 37.1779 79.1543C37.0947 78.8932 37.0637 78.6182 37.0868 78.3451C37.1099 78.0719 37.1866 77.806 37.3124 77.5626C37.4383 77.3191 37.6109 77.1027 37.8203 76.9259C38.0298 76.7491 38.272 76.6153 38.5331 76.5322C38.7943 76.449 39.0693 76.418 39.3424 76.4411C39.6155 76.4642 39.8814 76.5409 40.1249 76.6667C46.8687 80.0975 54.6261 80.9722 61.9645 79.1293C69.3029 77.2864 75.7265 72.8503 80.0491 66.6403C84.3717 60.4303 86.3013 52.866 85.4814 45.3443C84.6615 37.8226 81.1475 30.8516 75.5885 25.7187C70.0295 20.5859 62.8009 17.638 55.2378 17.4194C47.6747 17.2008 40.2879 19.7263 34.4417 24.5295C28.5955 29.3326 24.6848 36.089 23.4318 43.5508C22.1788 51.0126 23.6682 58.6758 27.6249 65.1251C27.904 65.6023 27.9862 66.1695 27.8539 66.7062C27.7217 67.243 27.3854 67.7071 26.9166 68.0001C26.6817 68.1437 26.4206 68.2394 26.1485 68.2815C25.8765 68.3236 25.5987 68.3114 25.3314 68.2455C25.064 68.1797 24.8124 68.0615 24.591 67.8977C24.3696 67.734 24.1829 67.528 24.0416 67.2917C19.4691 59.9695 17.7284 51.2294 19.1466 42.7141C20.5648 34.1987 25.0442 26.4946 31.743 21.0495C38.4418 15.6045 46.8987 12.7936 55.5242 13.1451C64.1496 13.4966 72.3497 16.9864 78.5833 22.9584C83.3972 27.4203 86.8765 33.1321 88.6328 39.4565C90.3892 45.7808 90.3535 52.4688 88.5298 58.7741C86.7061 65.0793 83.1661 70.7537 78.3048 75.164C73.4436 79.5742 67.4524 82.5469 60.9999 83.7501C58.8565 84.149 56.6801 84.3443 54.4999 84.3334Z" fill="#95E1D3"/>
<path d="M22.1667 86.5001C21.359 86.4849 20.5675 86.2708 19.8622 85.877C19.1569 85.4831 18.5595 84.9215 18.1228 84.2418C17.6862 83.5621 17.4238 82.7853 17.3587 81.9801C17.2937 81.1749 17.4281 80.366 17.75 79.6251L24.0833 65.3751C24.3191 64.8701 24.7438 64.4779 25.266 64.283C25.7882 64.0882 26.366 64.1063 26.875 64.3334C27.3771 64.5608 27.7686 64.9779 27.9638 65.4933C28.1591 66.0087 28.1421 66.5805 27.9167 67.0834L21.5417 81.3334C21.4605 81.4416 21.4167 81.5732 21.4167 81.7085C21.4167 81.8437 21.4605 81.9753 21.5417 82.0835C21.6327 82.1876 21.7522 82.2628 21.8855 82.2999C22.0188 82.3369 22.16 82.3341 22.2917 82.2918L38.3333 76.5834C38.59 76.4847 38.8641 76.4388 39.139 76.4486C39.4138 76.4584 39.6839 76.5236 39.933 76.6403C40.182 76.7571 40.4049 76.9229 40.5883 77.128C40.7716 77.333 40.9117 77.573 41 77.8334C41.1876 78.3528 41.1614 78.9255 40.927 79.4255C40.6926 79.9256 40.2692 80.3121 39.75 80.5001L23.8333 86.2085C23.3002 86.4064 22.7353 86.5053 22.1667 86.5001Z" fill="#95E1D3"/>
</svg>
