<svg width="67" height="19" viewBox="0 0 67 19" fill="none" xmlns="http://www.w3.org/2000/svg">
<path d="M13.6714 17.9376V7.61085L9.93619 15.1301H7.739L4.00377 7.61085V17.9376H0V0.604244H4.34556L8.83759 9.66156L13.354 0.604244H17.6752V17.9376H13.6714Z" fill="white"/>
<path d="M26.5753 18.1818C25.1105 18.1818 23.8655 17.8725 22.8401 17.2541C21.831 16.6356 21.058 15.8218 20.5209 14.8128C19.9838 13.8037 19.7152 12.7132 19.7152 11.5414C19.7152 10.3533 19.9838 9.25467 20.5209 8.24559C21.058 7.23651 21.8392 6.42273 22.8645 5.80427C23.8899 5.1858 25.1268 4.87656 26.5753 4.87656C28.0239 4.87656 29.2608 5.1858 30.2862 5.80427C31.3115 6.42273 32.0927 7.23651 32.6298 8.24559C33.1669 9.25467 33.4355 10.3533 33.4355 11.5414C33.4355 12.7132 33.1669 13.8037 32.6298 14.8128C32.0927 15.8218 31.3115 16.6356 30.2862 17.2541C29.2608 17.8725 28.0239 18.1818 26.5753 18.1818ZM23.719 11.5414C23.719 12.5342 23.9875 13.3398 24.5246 13.9583C25.078 14.5768 25.7616 14.886 26.5753 14.886C27.3728 14.886 28.0401 14.5768 28.5772 13.9583C29.1306 13.3398 29.4073 12.5342 29.4073 11.5414C29.4073 10.5486 29.1306 9.74294 28.5772 9.12447C28.0401 8.506 27.3728 8.19676 26.5753 8.19676C25.7616 8.19676 25.078 8.506 24.5246 9.12447C23.9875 9.74294 23.719 10.5486 23.719 11.5414Z" fill="white"/>
<path d="M43.0385 18.0597C41.8992 18.0597 40.825 17.8481 39.8159 17.425C38.8231 16.9855 37.9361 16.3752 37.1549 15.594C36.3899 14.7965 35.7877 13.8606 35.3483 12.7865C34.9251 11.696 34.7135 10.4835 34.7135 9.14888C34.7135 7.94449 34.9251 6.82148 35.3483 5.77985C35.7877 4.73822 36.398 3.81866 37.1793 3.02116C37.9768 2.22366 38.8963 1.60519 39.938 1.16575C40.9959 0.710034 42.1352 0.482178 43.3558 0.482178C44.9508 0.482178 46.3505 0.823964 47.5549 1.50753C48.7756 2.19111 49.687 3.11067 50.2892 4.26623L47.3108 6.51225C46.9202 5.7473 46.3505 5.14511 45.6018 4.70567C44.8532 4.26623 44.0557 4.04651 43.2093 4.04651C42.3305 4.04651 41.5574 4.28251 40.8901 4.7545C40.2228 5.21021 39.702 5.83682 39.3276 6.63432C38.9533 7.43182 38.7661 8.31883 38.7661 9.29536C38.7661 10.2882 38.9614 11.1833 39.3521 11.9808C39.7427 12.762 40.2798 13.3805 40.9633 13.8362C41.6632 14.2757 42.4688 14.4954 43.3802 14.4954C44.9427 14.4954 46.3505 13.7793 47.6037 12.347V11.7855H44.2347V8.88034H50.9239V17.9376H47.6037V16.2287C46.2854 17.4494 44.7637 18.0597 43.0385 18.0597Z" fill="white"/>
<path d="M59.3568 18.1818C57.892 18.1818 56.6469 17.8725 55.6216 17.2541C54.6125 16.6356 53.8394 15.8218 53.3023 14.8128C52.7652 13.8037 52.4967 12.7132 52.4967 11.5414C52.4967 10.3533 52.7652 9.25467 53.3023 8.24559C53.8394 7.23651 54.6206 6.42273 55.646 5.80427C56.6713 5.1858 57.9083 4.87656 59.3568 4.87656C60.8053 4.87656 62.0423 5.1858 63.0676 5.80427C64.093 6.42273 64.8742 7.23651 65.4113 8.24559C65.9484 9.25467 66.2169 10.3533 66.2169 11.5414C66.2169 12.7132 65.9484 13.8037 65.4113 14.8128C64.8742 15.8218 64.093 16.6356 63.0676 17.2541C62.0423 17.8725 60.8053 18.1818 59.3568 18.1818ZM56.5005 11.5414C56.5005 12.5342 56.769 13.3398 57.3061 13.9583C57.8595 14.5768 58.543 14.886 59.3568 14.886C60.1543 14.886 60.8216 14.5768 61.3587 13.9583C61.9121 13.3398 62.1887 12.5342 62.1887 11.5414C62.1887 10.5486 61.9121 9.74294 61.3587 9.12447C60.8216 8.506 60.1543 8.19676 59.3568 8.19676C58.543 8.19676 57.8595 8.506 57.3061 9.12447C56.769 9.74294 56.5005 10.5486 56.5005 11.5414Z" fill="white"/>
</svg>
