<svg width="17" height="18" viewBox="0 0 17 18" fill="none" xmlns="http://www.w3.org/2000/svg">
<path d="M7.05161 12.298C6.07863 12.298 5.12753 12.0093 4.31871 11.4684C3.5099 10.9276 2.87974 10.1589 2.50802 9.25974C2.1363 8.36057 2.03973 7.37132 2.23054 6.41723C2.42135 5.46314 2.89095 4.58712 3.5799 3.90007C4.26885 3.21302 5.14617 2.74584 6.10078 2.55767C7.05539 2.3695 8.04437 2.4688 8.94251 2.843C9.84066 3.2172 10.6076 3.84948 11.1462 4.65979C11.6848 5.47009 11.9709 6.42199 11.9682 7.39497C11.9628 8.69601 11.4426 9.94204 10.5214 10.8608C9.60013 11.7795 8.35267 12.2962 7.05161 12.298ZM7.05161 3.14299C6.21391 3.143 5.395 3.39124 4.69829 3.85636C4.00159 4.32149 3.45833 4.98264 3.13714 5.75632C2.81595 6.52999 2.73123 7.3815 2.89367 8.2033C3.05612 9.0251 3.45844 9.78033 4.04984 10.3736C4.64124 10.9669 5.39518 11.3716 6.21645 11.5367C7.03773 11.7018 7.8895 11.6198 8.6642 11.3011C9.4389 10.9823 10.1018 10.4412 10.5691 9.74599C11.0365 9.05078 11.2873 8.23266 11.29 7.39497C11.29 6.27087 10.8435 5.19281 10.0486 4.39796C9.25376 3.6031 8.17571 3.15655 7.05161 3.15655V3.14299Z" fill="white"/>
<path d="M14.6807 15.3631C14.6363 15.3636 14.5922 15.3548 14.5513 15.3373C14.5104 15.3198 14.4737 15.2939 14.4434 15.2613L10.049 10.867C9.98605 10.804 9.95068 10.7186 9.95068 10.6296C9.95068 10.5406 9.98605 10.4552 10.049 10.3923C10.1119 10.3293 10.1973 10.2939 10.2863 10.2939C10.3754 10.2939 10.4607 10.3293 10.5237 10.3923L14.9181 14.7866C14.9505 14.8171 14.9764 14.8539 14.994 14.8947C15.0117 14.9355 15.0208 14.9795 15.0208 15.024C15.0208 15.0685 15.0117 15.1125 14.994 15.1533C14.9764 15.1941 14.9505 15.2309 14.9181 15.2613C14.8878 15.2939 14.851 15.3198 14.8102 15.3373C14.7693 15.3548 14.7252 15.3636 14.6807 15.3631Z" fill="white"/>
</svg>
