<svg width="42" height="42" viewBox="0 0 42 42" fill="none" xmlns="http://www.w3.org/2000/svg">
<rect width="42" height="42" fill="#F9EFCF"/>
<path d="M21.0034 36.8215C16.6984 36.8215 16.1909 36.7988 14.5109 36.7253C13.2008 36.6822 11.9077 36.4159 10.6872 35.9378C9.64273 35.5313 8.69423 34.9121 7.9019 34.1195C7.10957 33.3269 6.49073 32.3781 6.08467 31.3335C5.62495 30.1086 5.377 28.8144 5.35142 27.5063C5.25342 25.8298 5.25342 25.2803 5.25342 21.0085C5.25342 16.6913 5.27617 16.1873 5.35142 14.516C5.37756 13.2097 5.6255 11.9173 6.08467 10.694C6.49026 9.64813 7.10952 8.69831 7.90291 7.90522C8.69629 7.11214 9.64635 6.49324 10.6924 6.08804C11.915 5.6264 13.2078 5.3778 14.5144 5.35304C16.1857 5.25854 16.7352 5.25854 21.0034 5.25854C25.3434 5.25854 25.8422 5.28129 27.4959 5.35304C28.8049 5.37754 30.1034 5.62604 31.3284 6.08804C32.3742 6.49371 33.324 7.11278 34.1174 7.9058C34.9107 8.69882 35.5301 9.64841 35.9362 10.694C36.4034 11.9365 36.6537 13.249 36.6729 14.5738C36.7709 16.2503 36.7709 16.798 36.7709 21.068C36.7709 25.338 36.7464 25.898 36.6729 27.5553C36.6468 28.8646 36.3982 30.16 35.9379 31.386C35.5308 32.4314 34.9108 33.3806 34.1173 34.1735C33.3238 34.9665 32.374 35.5857 31.3284 35.992C30.1034 36.4505 28.8102 36.699 27.5029 36.7253C25.8317 36.8215 25.2839 36.8215 21.0034 36.8215ZM20.9439 8.02879C16.6634 8.02879 16.2189 8.04979 14.5477 8.12504C13.5496 8.1381 12.5611 8.32218 11.6252 8.66929C10.9425 8.93095 10.3223 9.33274 9.8045 9.84876C9.28666 10.3648 8.88271 10.9836 8.61867 11.6653C8.26867 12.6103 8.08492 13.6095 8.07442 14.6175C7.98167 16.3133 7.98167 16.7578 7.98167 21.0085C7.98167 25.2085 7.99742 25.7178 8.07442 27.403C8.09017 28.4005 8.27392 29.3893 8.61867 30.3255C9.15417 31.7028 10.2462 32.7913 11.6269 33.3198C12.5616 33.6691 13.5499 33.8532 14.5477 33.864C16.2417 33.962 16.6879 33.962 20.9439 33.962C25.2367 33.962 25.6812 33.941 27.3384 33.864C28.3366 33.852 29.3253 33.6679 30.2609 33.3198C30.9399 33.0561 31.5566 32.6541 32.0718 32.1392C32.587 31.6243 32.9894 31.0079 33.2534 30.329C33.6034 29.384 33.7872 28.383 33.7977 27.375H33.8169C33.8922 25.702 33.8922 25.2558 33.8922 20.9805C33.8922 16.7053 33.8729 16.2555 33.7977 14.5843C33.7818 13.5876 33.5978 12.6007 33.2534 11.6653C32.99 10.9855 32.5878 10.368 32.0726 9.85221C31.5574 9.33639 30.9404 8.93353 30.2609 8.66929C29.3247 8.31929 28.3359 8.1373 27.3384 8.12504C25.6462 8.0288 25.2034 8.02879 20.9439 8.02879ZM21.0034 29.0918C19.4032 29.0928 17.8386 28.6193 16.5075 27.731C15.1764 26.8428 14.1386 25.5797 13.5254 24.1016C12.9122 22.6235 12.7512 20.9967 13.0626 19.4271C13.374 17.8574 14.144 16.4154 15.275 15.2834C16.4061 14.1513 17.8475 13.3801 19.4168 13.0673C20.9862 12.7546 22.6131 12.9142 24.0917 13.5261C25.5704 14.138 26.8343 15.1747 27.7237 16.505C28.6132 17.8353 29.0881 19.3995 29.0884 20.9998C29.0856 23.1439 28.2332 25.1994 26.7177 26.7162C25.2023 28.2329 23.1475 29.0872 21.0034 29.0918ZM21.0034 15.7463C19.9651 15.7463 18.95 16.0542 18.0867 16.6311C17.2233 17.208 16.5504 18.0279 16.153 18.9872C15.7557 19.9465 15.6517 21.0021 15.8543 22.0205C16.0569 23.0389 16.5569 23.9744 17.2911 24.7086C18.0253 25.4428 18.9608 25.9428 19.9792 26.1454C20.9976 26.348 22.0532 26.244 23.0125 25.8467C23.9718 25.4493 24.7918 24.7764 25.3686 23.913C25.9455 23.0497 26.2534 22.0346 26.2534 20.9963C26.2502 19.6049 25.696 18.2714 24.7122 17.2876C23.7283 16.3037 22.3948 15.7495 21.0034 15.7463ZM29.4034 14.4985C29.1557 14.4976 28.9105 14.4479 28.682 14.3523C28.4535 14.2566 28.246 14.1169 28.0715 13.9411C27.719 13.586 27.5221 13.1054 27.5239 12.605C27.5258 12.1047 27.7263 11.6256 28.0814 11.2731C28.4365 10.9207 28.9171 10.7237 29.4174 10.7255C29.9177 10.7274 30.3968 10.9279 30.7493 11.283C31.1018 11.6381 31.2988 12.1187 31.2969 12.619C31.2951 13.1194 31.0945 13.5985 30.7394 13.951C30.3843 14.3034 29.9037 14.5004 29.4034 14.4985Z" fill="#F38281"/>
</svg>
